STARTFONT 2.1
FONT -gbdfed-Unknown-Medium-R-Normal--20-20-96-96-P-20-FontSpecific-0
SIZE 2 96 96
FONTBOUNDINGBOX 24 20 0 0
STARTPROPERTIES 9
POINT_SIZE 20
PIXEL_SIZE 20
RESOLUTION_X 96
RESOLUTION_Y 96
FONT_ASCENT 20
FONT_DESCENT 0
AVERAGE_WIDTH 20
SPACING "P"
_GBDFED_INFO "Edited with gbdfed 1.6."
ENDPROPERTIES
CHARS 49
STARTCHAR char32
ENCODING 32
SWIDTH 0 0
DWIDTH 0 0
BBX 0 0 0 0
BITMAP
ENDCHAR
STARTCHAR char33
ENCODING 33
SWIDTH 4500 0
DWIDTH 12 0
BBX 4 20 0 0
BITMAP
F0
F0
F0
F0
F0
F0
F0
F0
F0
F0
F0
F0
00
00
00
00
F0
F0
F0
F0
ENDCHAR
STARTCHAR char44
ENCODING 44
SWIDTH 4500 0
DWIDTH 12 0
BBX 8 4 0 0
BITMAP
1F
3E
7C
F8
ENDCHAR
STARTCHAR char45
ENCODING 45
SWIDTH 7500 0
DWIDTH 20 0
BBX 20 4 0 8
BITMAP
FFFFF0
FFFFF0
FFFFF0
FFFFF0
ENDCHAR
STARTCHAR char46
ENCODING 46
SWIDTH 3000 0
DWIDTH 8 0
BBX 4 4 0 0
BITMAP
F0
F0
F0
F0
ENDCHAR
STARTCHAR char48
ENCODING 48
SWIDTH 750 0
DWIDTH 2 0
BBX 20 20 0 0
BITMAP
1FFF80
3FFFC0
7FFFE0
FFFFF0
F801F0
F000F0
F000F0
F000F0
F000F0
F000F0
F000F0
F000F0
F000F0
F000F0
F000F0
F801F0
FFFFF0
7FFFE0
3FFFC0
1FFF80
ENDCHAR
STARTCHAR char49
ENCODING 49
SWIDTH 4500 0
DWIDTH 12 0
BBX 8 20 4 0
BITMAP
1F
3F
7F
FF
0F
0F
0F
0F
0F
0F
0F
0F
0F
0F
0F
0F
0F
0F
0F
0F
ENDCHAR
STARTCHAR char50
ENCODING 50
SWIDTH 7500 0
DWIDTH 20 0
BBX 20 20 0 0
BITMAP
FFFF80
FFFFC0
FFFFE0
FFFFF0
0001F0
0000F0
0000F0
0001F0
1FFFF0
3FFFE0
7FFFC0
FFFF80
F80000
F00000
F00000
F00000
FFFFF0
FFFFF0
FFFFF0
FFFFF0
ENDCHAR
STARTCHAR char51
ENCODING 51
SWIDTH 0 0
DWIDTH 0 0
BBX 20 20 0 0
BITMAP
FFFF80
FFFFC0
FFFFE0
FFFFF0
0001F0
0000F0
0000F0
0001F0
0FFFF0
0FFFE0
0FFFE0
0FFFF0
0001F0
0000F0
0000F0
0001F0
FFFFF0
FFFFE0
FFFFC0
FFFF80
ENDCHAR
STARTCHAR char52
ENCODING 52
SWIDTH 7500 0
DWIDTH 20 0
BBX 20 20 0 0
BITMAP
F000F0
F000F0
F000F0
F000F0
F000F0
F000F0
F000F0
F800F0
FFFFF0
7FFFF0
3FFFF0
1FFFF0
0000F0
0000F0
0000F0
0000F0
0000F0
0000F0
0000F0
0000F0
ENDCHAR
STARTCHAR char53
ENCODING 53
SWIDTH 7500 0
DWIDTH 20 0
BBX 20 20 0 0
BITMAP
FFFFF0
FFFFF0
FFFFF0
FFFFF0
F00000
F00000
F00000
F00000
FFFF80
FFFFC0
FFFFE0
FFFFF0
0001F0
0000F0
0000F0
0001F0
FFFFF0
FFFFE0
FFFFC0
FFFF80
ENDCHAR
STARTCHAR char54
ENCODING 54
SWIDTH 0 0
DWIDTH 0 0
BBX 20 20 0 0
BITMAP
1FFFF0
3FFFF0
7FFFF0
FFFFF0
F80000
F00000
F00000
F00000
FFFF80
FFFFC0
FFFFE0
FFFFF0
F001F0
F000F0
F000F0
F801F0
FFFFF0
7FFFE0
3FFFC0
1FFF80
ENDCHAR
STARTCHAR char55
ENCODING 55
SWIDTH 7500 0
DWIDTH 20 0
BBX 20 20 0 0
BITMAP
FFFFF0
FFFFF0
FFFFF0
FFFFF0
0001F0
0003E0
0007C0
000F80
001F00
003E00
007C00
00F800
00F000
00F000
00F000
00F000
00F000
00F000
00F000
00F000
ENDCHAR
STARTCHAR char56
ENCODING 56
SWIDTH 7500 0
DWIDTH 20 0
BBX 20 20 0 0
BITMAP
1FFF80
3FFFC0
7FFFE0
FFFFF0
F801F0
F000F0
F000F0
F801F0
FFFFF0
7FFFE0
7FFFE0
FFFFF0
F801F0
F000F0
F000F0
F801F0
FFFFF0
7FFFE0
3FFFC0
1FFF80
ENDCHAR
STARTCHAR char57
ENCODING 57
SWIDTH 0 0
DWIDTH 0 0
BBX 20 20 0 0
BITMAP
1FFF80
3FFFC0
7FFFE0
FFFFF0
F801F0
F000F0
F000F0
F801F0
FFFFF0
7FFFF0
3FFFF0
1FFFF0
0001F0
0000F0
0000F0
0001F0
FFFFF0
FFFFE0
FFFFC0
FFFF80
ENDCHAR
STARTCHAR char58
ENCODING 58
SWIDTH 1500 0
DWIDTH 4 0
BBX 4 12 0 4
BITMAP
F0
F0
F0
F0
00
00
00
00
F0
F0
F0
F0
ENDCHAR
STARTCHAR char63
ENCODING 63
SWIDTH 7500 0
DWIDTH 20 0
BBX 16 20 0 0
BITMAP
FFF8
FFFC
FFFE
FFFF
001F
000F
000F
001F
0FFF
0FFE
0FFC
0FF8
0000
0000
0000
0000
0F00
0F00
0F00
0F00
ENDCHAR
STARTCHAR A
ENCODING 65
SWIDTH 7500 0
DWIDTH 20 0
BBX 20 20 0 0
BITMAP
1FFF80
3FFFC0
7FFFE0
FFFFF0
F000F0
F000F0
F000F0
F000F0
FFFFF0
FFFFF0
FFFFF0
FFFFF0
F000F0
F000F0
F000F0
F000F0
F000F0
F000F0
F000F0
F000F0
ENDCHAR
STARTCHAR char66
ENCODING 66
SWIDTH 7500 0
DWIDTH 20 0
BBX 20 20 0 0
BITMAP
FFFF80
FFFFC0
FFFFE0
FFFFF0
F001F0
F000F0
F000F0
F001F0
FFFFF0
FFFFE0
FFFFE0
FFFFF0
F001F0
F000F0
F000F0
F001F0
FFFFF0
FFFFE0
FFFFC0
FFFF80
ENDCHAR
STARTCHAR char67
ENCODING 67
SWIDTH 7500 0
DWIDTH 20 0
BBX 20 20 0 0
BITMAP
1FFFF0
3FFFF0
7FFFF0
FFFFF0
F80000
F00000
F00000
F00000
F00000
F00000
F00000
F00000
F00000
F00000
F00000
F80000
FFFFF0
7FFFF0
3FFFF0
1FFFF0
ENDCHAR
STARTCHAR char68
ENCODING 68
SWIDTH 7500 0
DWIDTH 20 0
BBX 20 20 0 0
BITMAP
FFFF80
FFFFC0
FFFFE0
FFFFF0
F001F0
F000F0
F000F0
F000F0
F000F0
F000F0
F000F0
F000F0
F000F0
F000F0
F000F0
F001F0
FFFFF0
FFFFE0
FFFFC0
FFFF80
ENDCHAR
STARTCHAR char69
ENCODING 69
SWIDTH 7500 0
DWIDTH 20 0
BBX 20 20 0 0
BITMAP
FFFFF0
FFFFF0
FFFFF0
FFFFF0
F00000
F00000
F00000
F00000
FFFF00
FFFF00
FFFF00
FFFF00
F00000
F00000
F00000
F00000
FFFFF0
FFFFF0
FFFFF0
FFFFF0
ENDCHAR
STARTCHAR char70
ENCODING 70
SWIDTH 0 0
DWIDTH 0 0
BBX 20 20 0 0
BITMAP
FFFFF0
FFFFF0
FFFFF0
FFFFF0
F00000
F00000
F00000
F00000
FFFF00
FFFF00
FFFF00
FFFF00
F00000
F00000
F00000
F00000
F00000
F00000
F00000
F00000
ENDCHAR
STARTCHAR char71
ENCODING 71
SWIDTH 7500 0
DWIDTH 20 0
BBX 20 20 0 0
BITMAP
1FFFF0
3FFFF0
7FFFF0
FFFFF0
F80000
F00000
F00000
F00000
F0FFF0
F0FFF0
F0FFF0
F0FFF0
F000F0
F000F0
F000F0
F801F0
FFFFF0
7FFFE0
3FFFC0
1FFF80
ENDCHAR
STARTCHAR char72
ENCODING 72
SWIDTH 7500 0
DWIDTH 20 0
BBX 20 20 0 0
BITMAP
F000F0
F000F0
F000F0
F000F0
F000F0
F000F0
F000F0
F000F0
FFFFF0
FFFFF0
FFFFF0
FFFFF0
F000F0
F000F0
F000F0
F000F0
F000F0
F000F0
F000F0
F000F0
ENDCHAR
STARTCHAR char73
ENCODING 73
SWIDTH 6000 0
DWIDTH 16 0
BBX 12 20 4 0
BITMAP
FFF0
FFF0
FFF0
FFF0
0F00
0F00
0F00
0F00
0F00
0F00
0F00
0F00
0F00
0F00
0F00
0F00
FFF0
FFF0
FFF0
FFF0
ENDCHAR
STARTCHAR char74
ENCODING 74
SWIDTH 6000 0
DWIDTH 16 0
BBX 12 20 4 0
BITMAP
FFF0
FFF0
FFF0
FFF0
0F00
0F00
0F00
0F00
0F00
0F00
0F00
0F00
0F00
0F00
0F00
1F00
FF00
FE00
FC00
F800
ENDCHAR
STARTCHAR char75
ENCODING 75
SWIDTH 7500 0
DWIDTH 20 0
BBX 20 20 0 0
BITMAP
F001F0
F003E0
F007C0
F00F80
F01F00
F03E00
F07C00
F1F800
FFF000
FFE000
FFE000
FFF000
F1F800
F07C00
F03E00
F01F00
F00F80
F007C0
F003E0
F001F0
ENDCHAR
STARTCHAR char76
ENCODING 76
SWIDTH 7500 0
DWIDTH 20 0
BBX 20 20 0 0
BITMAP
F00000
F00000
F00000
F00000
F00000
F00000
F00000
F00000
F00000
F00000
F00000
F00000
F00000
F00000
F00000
F00000
FFFFF0
FFFFF0
FFFFF0
FFFFF0
ENDCHAR
STARTCHAR char77
ENCODING 77
SWIDTH 7500 0
DWIDTH 20 0
BBX 20 20 0 0
BITMAP
1F9F80
3FFFC0
7FFFE0
FFFFF0
F0F0F0
F0F0F0
F0F0F0
F0F0F0
F0F0F0
F0F0F0
F0F0F0
F0F0F0
F0F0F0
F0F0F0
F0F0F0
F0F0F0
F0F0F0
F0F0F0
F0F0F0
F0F0F0
ENDCHAR
STARTCHAR char78
ENCODING 78
SWIDTH 375 0
DWIDTH 1 0
BBX 20 20 0 0
BITMAP
F800F0
FC00F0
FE00F0
FF00F0
FF80F0
F7C0F0
F3E0F0
F1F0F0
F0F8F0
F07CF0
F03EF0
F01FF0
F00FF0
F007F0
F003F0
F001F0
F000F0
F000F0
F000F0
F000F0
ENDCHAR
STARTCHAR char79
ENCODING 79
SWIDTH 7500 0
DWIDTH 20 0
BBX 20 20 0 0
BITMAP
1FFF80
3FFFC0
7FFFE0
FFFFF0
F801F0
F000F0
F000F0
F000F0
F000F0
F000F0
F000F0
F000F0
F000F0
F000F0
F000F0
F801F0
FFFFF0
7FFFE0
3FFFC0
1FFF80
ENDCHAR
STARTCHAR char80
ENCODING 80
SWIDTH 7500 0
DWIDTH 20 0
BBX 20 20 0 0
BITMAP
FFFF80
FFFFC0
FFFFE0
FFFFF0
F001F0
F000F0
F000F0
F001F0
FFFFF0
FFFFE0
FFFFC0
FFFF80
F00000
F00000
F00000
F00000
F00000
F00000
F00000
F00000
ENDCHAR
STARTCHAR char81
ENCODING 81
SWIDTH 0 0
DWIDTH 0 0
BBX 20 20 0 0
BITMAP
1FFF80
3FFFC0
7FFFE0
FFFFF0
F801F0
F000F0
F000F0
F000F0
F000F0
F000F0
F000F0
F000F0
F00FF0
F00FF0
F00FF0
F80FF0
FFFFF0
7FFFF0
3FFFF0
1FFFF0
ENDCHAR
STARTCHAR char82
ENCODING 82
SWIDTH 7500 0
DWIDTH 20 0
BBX 20 20 0 0
BITMAP
FFFF80
FFFFC0
FFFFE0
FFFFF0
F001F0
F000F0
F000F0
F001F0
FFFFF0
FFFFE0
FFFFE0
FFFFF0
F001F0
F000F0
F000F0
F000F0
F000F0
F000F0
F000F0
F000F0
ENDCHAR
STARTCHAR char83
ENCODING 83
SWIDTH 7500 0
DWIDTH 20 0
BBX 20 20 0 0
BITMAP
1FFFF0
3FFFF0
7FFFF0
FFFFF0
F80000
F00000
F00000
F80000
FFFF80
7FFFC0
3FFFE0
1FFFF0
0001F0
0000F0
0000F0
0001F0
FFFFF0
FFFFE0
FFFFC0
FFFF80
ENDCHAR
STARTCHAR char84
ENCODING 84
SWIDTH 7500 0
DWIDTH 20 0
BBX 20 20 0 0
BITMAP
FFFFF0
FFFFF0
FFFFF0
FFFFF0
00F000
00F000
00F000
00F000
00F000
00F000
00F000
00F000
00F000
00F000
00F000
00F000
00F000
00F000
00F000
00F000
ENDCHAR
STARTCHAR char85
ENCODING 85
SWIDTH 7500 0
DWIDTH 20 0
BBX 20 20 0 0
BITMAP
F000F0
F000F0
F000F0
F000F0
F000F0
F000F0
F000F0
F000F0
F000F0
F000F0
F000F0
F000F0
F000F0
F000F0
F000F0
F801F0
FFFFF0
7FFFE0
3FFFC0
1FFF80
ENDCHAR
STARTCHAR char86
ENCODING 86
SWIDTH 7500 0
DWIDTH 20 0
BBX 20 20 0 0
BITMAP
F000F0
F000F0
F000F0
F000F0
F000F0
F000F0
F000F0
F000F0
F000F0
F000F0
F000F0
F000F0
F801F0
7C03E0
3E07C0
1F0F80
0FFF00
07FE00
03FC00
01F800
ENDCHAR
STARTCHAR char87
ENCODING 87
SWIDTH 7500 0
DWIDTH 20 0
BBX 20 20 0 0
BITMAP
F0F0F0
F0F0F0
F0F0F0
F0F0F0
F0F0F0
F0F0F0
F0F0F0
F0F0F0
F0F0F0
F0F0F0
F0F0F0
F0F0F0
F0F0F0
F0F0F0
F0F0F0
F0F0F0
FFFFF0
7FFFE0
3FFFC0
1F9F80
ENDCHAR
STARTCHAR char88
ENCODING 88
SWIDTH 7500 0
DWIDTH 20 0
BBX 20 20 0 0
BITMAP
F000F0
F000F0
F000F0
F000F0
F801F0
7C03E0
3E07C0
1F0F80
0FFF00
07FE00
07FE00
0FFF00
1F0F80
3E07C0
7C03E0
F801F0
F000F0
F000F0
F000F0
F000F0
ENDCHAR
STARTCHAR char89
ENCODING 89
SWIDTH 7500 0
DWIDTH 20 0
BBX 20 20 0 0
BITMAP
F000F0
F000F0
F000F0
F000F0
F801F0
7C03E0
3E07C0
1F0F80
0F9F00
07FE00
03FC00
01F800
00F000
00F000
00F000
00F000
00F000
00F000
00F000
00F000
ENDCHAR
STARTCHAR char90
ENCODING 90
SWIDTH 7500 0
DWIDTH 20 0
BBX 20 20 0 0
BITMAP
FFFFF0
FFFFF0
FFFFF0
FFFFF0
0001F0
0003E0
0007C0
000F80
01FF00
03FE00
07FC00
0FF800
1F0000
3E0000
7C0000
F80000
FFFFF0
FFFFF0
FFFFF0
FFFFF0
ENDCHAR
STARTCHAR char123
ENCODING 123
SWIDTH 9000 0
DWIDTH 24 0
BBX 24 20 0 0
BITMAP
0F0F00
0F0F00
0F0F00
0F0F00
0F0F00
0F0F00
0F0F00
0F0F00
FFFFF8
FFFFFC
FFFFFE
FFFFFF
0F0F0F
0F0F0F
0F0F0F
0F0F0F
0FFF0F
07FF0F
03FF0F
01FF0F
ENDCHAR
STARTCHAR char124
ENCODING 124
SWIDTH 7500 0
DWIDTH 20 0
BBX 20 20 0 0
BITMAP
000F00
000F00
000F00
000F00
1FFFF0
3FFFF0
7FFFF0
FFFFF0
F80F00
7C0F00
3E0F00
1F0F00
0F8F00
07CF00
03EF00
01FF80
FFFFF0
FFE7F0
FFC3F0
FF81F0
ENDCHAR
STARTCHAR char125
ENCODING 125
SWIDTH 9000 0
DWIDTH 24 0
BBX 24 20 0 0
BITMAP
00000F
00000F
00000F
00000F
00000F
00000F
00000F
00000F
FF81FF
FFC3FF
FFE7FF
FFFFFF
F1FF8F
F0FF0F
F0FF0F
F0FF8F
F0FFFF
F0F7FF
F0F3FF
F0F1FF
ENDCHAR
STARTCHAR char126
ENCODING 126
SWIDTH 7500 0
DWIDTH 20 0
BBX 20 20 0 0
BITMAP
0000F0
0000F0
0000F0
0000F0
0000F0
0000F0
0000F0
0000F0
FFFFF0
FFFFF0
FFFFF0
FFFFF0
F0F8F0
F0F0F0
F0F0F0
F0F8F0
F0FFF0
F07FF0
F03FF0
F01FF0
ENDCHAR
STARTCHAR char127
ENCODING 127
SWIDTH 7500 0
DWIDTH 20 0
BBX 20 20 0 0
BITMAP
FFFFF0
FFFFF0
FFFFF0
FFFFF0
F000F0
F000F0
F000F0
F000F0
F0F0F0
F0F0F0
F0F0F0
F0F0F0
F000F0
F000F0
F000F0
F000F0
FFFFF0
FFFFF0
FFFFF0
FFFFF0
ENDCHAR
STARTCHAR char128
ENCODING 128
SWIDTH 7500 0
DWIDTH 20 0
BBX 20 12 0 8
BITMAP
0FFFF0
0FFFF0
0FFFF0
0FFFF0
FF00F0
FF00F0
FF00F0
FF00F0
0FFFF0
0FFFF0
0FFFF0
0FFFF0
ENDCHAR
ENDFONT
